<?xml version="1.0" encoding="UTF-8"?>
<svg width="26px" height="26px" viewBox="0 0 26 26" version="1.1" xmlns="http://www.w3.org/2000/svg" xmlns:xlink="http://www.w3.org/1999/xlink">
    <title>icon/公司</title>
    <g id="客户管理" stroke="none" stroke-width="1" fill="none" fill-rule="evenodd">
        <g id="3.01-客户详细信息" transform="translate(-236, -133)" fill-rule="nonzero">
            <g id="客户资料" transform="translate(216, 102)">
                <g id="编组-10" transform="translate(20, 30)">
                    <g id="icon/公司" transform="translate(0, 1)">
                        <rect id="矩形" fill="#000000" opacity="0" x="0" y="0" width="25.9974612" height="25.9974612"></rect>
                        <path d="M25.1824908,23.3592493 L23.5635018,23.3592493 L23.5635018,8.67292225 C23.5635018,6.38873995 22.2651048,5.4075067 21.4475956,5.24664879 L16.2540074,3.62198391 L16.2540074,1.82037534 C16.2540074,1.49865952 16.0937115,1.33780161 15.9334155,1.16085791 C15.7731196,1 15.4525277,1 15.2762022,1 L4.39210851,4.10455764 C4.39210851,4.10455764 2.43649815,4.58713137 2.43649815,7.20911528 L2.43649815,23.3592493 L0.817509248,23.3592493 C0.336621455,23.3592493 0,23.6809651 0,24.1796247 C0,24.6621984 0.320591862,25 0.817509248,25 L25.1824908,25 C25.6633785,25 26,24.6782842 26,24.1796247 C26,23.6809651 25.6794081,23.3592493 25.1824908,23.3592493 Z M14.6189889,23.3592493 L4.05548705,23.3592493 L4.05548705,7.20911528 C4.05548705,6.06702413 4.71270037,5.74530831 4.8729963,5.74530831 L14.6189889,2.97855228 L14.6189889,23.3592493 Z M21.9445129,23.3592493 L16.2540074,23.3592493 L16.2540074,5.24664879 L21.27127,6.91957105 L21.3834772,6.96782842 C21.3834772,6.96782842 21.8803946,7.1769437 21.9605425,8.67292225 L21.9605425,23.3592493 L21.9445129,23.3592493 Z M8.60789149,6.34048257 L6.98890259,6.34048257 L6.98890259,7.96514745 L8.60789149,7.96514745 L8.60789149,6.34048257 Z M12.3427867,6.34048257 L10.7237978,6.34048257 L10.7237978,7.96514745 L12.3427867,7.96514745 L12.3427867,6.34048257 Z M8.60789149,9.89544236 L6.98890259,9.89544236 L6.98890259,11.5201072 L8.60789149,11.5201072 L8.60789149,9.89544236 Z M12.3427867,9.89544236 L10.7237978,9.89544236 L10.7237978,11.5201072 L12.3427867,11.5201072 L12.3427867,9.89544236 Z M8.60789149,13.4504021 L6.98890259,13.4504021 L6.98890259,15.075067 L8.60789149,15.075067 L8.60789149,13.4504021 Z M12.3427867,13.4504021 L10.7237978,13.4504021 L10.7237978,15.075067 L12.3427867,15.075067 L12.3427867,13.4504021 Z M8.60789149,16.9892761 L6.98890259,16.9892761 L6.98890259,18.6300268 L8.60789149,18.6300268 L8.60789149,16.9892761 Z M12.3427867,16.9892761 L10.7237978,16.9892761 L10.7237978,18.6300268 L12.3427867,18.6300268 L12.3427867,16.9892761 Z M8.60789149,20.5442359 L6.98890259,20.5442359 L6.98890259,22.1689008 L8.60789149,22.1689008 L8.60789149,20.5442359 Z M12.3427867,20.5442359 L10.7237978,20.5442359 L10.7237978,22.1689008 L12.3427867,22.1689008 L12.3427867,20.5442359 Z M18.3699137,11.1179625 L19.9889026,11.1179625 L19.9889026,9.49329759 L18.3699137,9.49329759 L18.3699137,11.1179625 L18.3699137,11.1179625 Z M18.3699137,14.8659517 L19.9889026,14.8659517 L19.9889026,13.2412869 L18.3699137,13.2412869 L18.3699137,14.8659517 Z M18.3699137,18.4369973 L19.9889026,18.4369973 L19.9889026,16.8123324 L18.3699137,16.8123324 L18.3699137,18.4369973 Z M18.3699137,22.0563003 L19.9889026,22.0563003 L19.9889026,20.4316354 L18.3699137,20.4316354 L18.3699137,22.0563003 Z" id="形状" fill="#303133"></path>
                    </g>
                </g>
            </g>
        </g>
    </g>
</svg>