<?xml version="1.0" encoding="UTF-8"?>
<svg width="24px" height="24px" viewBox="0 0 24 24" version="1.1" xmlns="http://www.w3.org/2000/svg" xmlns:xlink="http://www.w3.org/1999/xlink">
    <title>切片</title>
    <g id="客户管理" stroke="none" stroke-width="1" fill="none" fill-rule="evenodd">
        <g id="07.客户信息" transform="translate(-370.000000, -175.000000)" fill="#909399" fill-rule="nonzero">
            <g id="客户资料" transform="translate(68.000000, 102.000000)">
                <g id="编组-5" transform="translate(30.000000, 73.000000)">
                    <g id="icon/邮箱" transform="translate(272.000000, 0.000000)">
                        <rect id="矩形" opacity="0" x="0" y="0" width="24" height="24"></rect>
                        <path d="M19.0714286,5 L4.92857143,5 C3.86395567,5.00130643 3.00121778,5.92684899 3,7.06896552 L3,17.9310345 C3.00121778,19.073151 3.86395567,19.9986936 4.92857143,20 L19.0714286,20 C20.1360443,19.9986936 20.9987822,19.073151 21,17.9310345 L21,7.06896552 C20.9987822,5.92684899 20.1360443,5.00130643 19.0714286,5 L19.0714286,5 Z M18.7321205,6.37931034 L12.4367411,13.1329741 C12.3161778,13.2623436 12.1526423,13.3350251 11.9821205,13.3350251 C11.8115988,13.3350251 11.6480633,13.2623436 11.5275,13.1329741 L5.23212054,6.37931034 L18.7321205,6.37931034 Z M19.0714286,18.6206897 L4.92857143,18.6206897 C4.57353123,18.6206897 4.28571429,18.3119205 4.28571429,17.9310345 L4.28571429,7.31465517 L10.6184598,14.1081897 C11.3716035,14.9161063 12.5926376,14.9161063 13.3457812,14.1081897 L19.7140848,7.2762931 L19.7140848,17.9310345 C19.7140848,18.3118364 19.4263903,18.6205707 19.0714286,18.6206897 Z" id="形状"></path>
                    </g>
                </g>
            </g>
        </g>
    </g>
</svg>